HIERARCHY
ROOT Hips
{
	OFFSET 0.000000 0.000000 0.000000
	CHANNELS 6 Xposition Yposition Zposition Xrotation Yrotation Zrotation
	JOINT LeftUpLeg_virtual
	{
		OFFSET 0.000000 0.000000 0.000000
		CHANNELS 3 Xrotation Yrotation Zrotation
		JOINT LeftUpLeg
		{
			OFFSET 11.394100 -6.187798 -0.413800
			CHANNELS 3 Xrotation Yrotation Zrotation
			JOINT LeftLeg
			{
				OFFSET 0.430247 -32.302673 3.732800
				CHANNELS 3 Xrotation Yrotation Zrotation
				JOINT LeftFoot
				{
					OFFSET -0.430247 -48.264931 -6.423300
					CHANNELS 3 Xrotation Yrotation Zrotation
					JOINT LeftToeBase
					{
						OFFSET 4.230900 -16.068199 23.438400
						CHANNELS 3 Xrotation Yrotation Zrotation
						JOINT LeftToe_End
						{
							OFFSET 4.510700 0.695400 19.974600
							CHANNELS 3 Xrotation Yrotation Zrotation
							End Site
							{
								OFFSET 0 0 0
							}
						}
					}
				}
			}
		}
	}
	JOINT RightUpLeg_virtual
	{
		OFFSET 0.000000 0.000000 0.000000
		CHANNELS 3 Xrotation Yrotation Zrotation
		JOINT RightUpLeg
		{
			OFFSET -11.333700 -6.187798 -0.413800
			CHANNELS 3 Xrotation Yrotation Zrotation
			JOINT RightLeg
			{
				OFFSET -0.430392 -32.302628 3.733000
				CHANNELS 3 Xrotation Yrotation Zrotation
				JOINT RightFoot
				{
					OFFSET 0.430392 -48.264973 -6.423500
					CHANNELS 3 Xrotation Yrotation Zrotation
					JOINT RightToeBase
					{
						OFFSET -4.230900 -16.068199 23.438400
						CHANNELS 3 Xrotation Yrotation Zrotation
						JOINT RightToe_End
						{
							OFFSET -4.510700 0.695400 19.974600
							CHANNELS 3 Xrotation Yrotation Zrotation
							End Site
							{
								OFFSET 0 0 0
							}
						}
					}
				}
			}
		}
	}
	JOINT Spine_virtual
	{
		OFFSET 0.000000 0.000000 0.000000
		CHANNELS 3 Xrotation Yrotation Zrotation
		JOINT Spine
		{
			OFFSET -0.002400 12.777504 0.315300
			CHANNELS 3 Xrotation Yrotation Zrotation
			JOINT Spine1
			{
				OFFSET -0.002067 5.816869 0.032633
				CHANNELS 3 Xrotation Yrotation Zrotation
				JOINT Spine1_split
				{
					OFFSET -0.002067 5.816869 0.032633
					CHANNELS 3 Xrotation Yrotation Zrotation
					JOINT Spine2
					{
						OFFSET -0.002067 5.816869 0.032633
						CHANNELS 3 Xrotation Yrotation Zrotation
						JOINT Neck_virtual
						{
							OFFSET 0.000000 0.000000 0.000000
							CHANNELS 3 Xrotation Yrotation Zrotation
							JOINT Neck
							{
								OFFSET -0.003700 21.199493 -0.826900
								CHANNELS 3 Xrotation Yrotation Zrotation
								JOINT Head
								{
									OFFSET 0.000000 20.442200 4.834800
									CHANNELS 3 Xrotation Yrotation Zrotation
									JOINT HeadTop_End
									{
										OFFSET 0.000000 34.668396 4.968400
										CHANNELS 3 Xrotation Yrotation Zrotation
										End Site
										{
											OFFSET 0 0 0
										}
									}
								}
							}
						}
						JOINT LeftShoulder_virtual
						{
							OFFSET 0.000000 0.000000 0.000000
							CHANNELS 3 Xrotation Yrotation Zrotation
							JOINT LeftShoulder
							{
								OFFSET 3.288150 8.794197 -1.372250
								CHANNELS 3 Xrotation Yrotation Zrotation
								JOINT LeftShoulder_split
								{
									OFFSET 3.288150 8.794197 -1.372250
									CHANNELS 3 Xrotation Yrotation Zrotation
									JOINT LeftArm
									{
										OFFSET 11.953299 -2.279007 -0.146200
										CHANNELS 3 Xrotation Yrotation Zrotation
										JOINT LeftForeArm
										{
											OFFSET 18.448900 0.000000 0.000000
											CHANNELS 3 Xrotation Yrotation Zrotation
											JOINT LeftHand
											{
												OFFSET 29.527798 0.000000 0.000000
												CHANNELS 3 Xrotation Yrotation Zrotation
												End Site
												{
													OFFSET 0 0 0
												}
											}
										}
									}
								}
							}
						}
						JOINT RightShoulder_virtual
						{
							OFFSET 0.000000 0.000000 0.000000
							CHANNELS 3 Xrotation Yrotation Zrotation
							JOINT RightShoulder
							{
								OFFSET -3.249400 8.794197 -1.372250
								CHANNELS 3 Xrotation Yrotation Zrotation
								JOINT RightShoulder_split
								{
									OFFSET -3.249400 8.794197 -1.372250
									CHANNELS 3 Xrotation Yrotation Zrotation
									JOINT RightArm
									{
										OFFSET -11.953299 -2.279007 -0.146200
										CHANNELS 3 Xrotation Yrotation Zrotation
										JOINT RightForeArm
										{
											OFFSET -18.448900 0.000000 0.000000
											CHANNELS 3 Xrotation Yrotation Zrotation
											JOINT RightHand
											{
												OFFSET -29.527802 0.000000 0.000000
												CHANNELS 3 Xrotation Yrotation Zrotation
												End Site
												{
													OFFSET 0 0 0
												}
											}
										}
									}
								}
							}
						}
					}
				}
			}
		}
	}
}
MOTION
Frames: 11
Frame Time: 0.03333333
1.522926 101.019547 -1.873112 0.000000 0.000000 0.000000 -0.621177 -1.906940 -3.110401 -33.068118 -6.734552 4.933534 50.742155 -1.895029 -0.085956 19.291842 -2.388893 10.128433 -15.448156 -0.858635 1.526337 0.000000 0.000000 0.000000 -0.259286 -0.313637 -3.440889 -22.325570 -13.962180 4.810687 38.250439 5.156735 -0.207094 11.504316 -1.569237 -6.778425 -21.932089 0.887937 5.350464 0.000000 0.000000 0.000000 -4.722201 4.286767 -2.469673 6.908962 1.585599 0.301408 -2.537495 -0.748814 1.885325 -0.193499 1.042693 -0.784171 0.000000 0.000000 0.000000 -2.708627 -0.184751 1.622200 -2.811342 -2.588428 2.196554 3.104053 1.182458 2.900526 0.000000 0.000000 0.000000 -2.372462 0.031980 1.840451 0.472829 2.123678 -0.970785 1.936620 -2.017897 0.530325 0.283603 2.114671 -71.462999 24.028377 -15.556082 1.494272 0.000000 0.000000 0.000000 -1.716801 -0.153190 1.697433 0.807195 4.361232 5.663469 -3.303806 0.594377 -2.257077 -6.772356 7.148713 78.084724 12.048367 18.976359 -3.245136 0.000000 0.000000 0.000000 
1.557909 101.150932 0.239647 0.000000 0.000000 0.000000 -0.789125 -2.338898 -3.181767 -34.474775 -5.328513 4.610596 44.807537 -0.885164 -0.572923 19.744883 -1.905580 12.053605 -15.597680 -0.854757 1.767702 0.000000 0.000000 0.000000 0.356024 -0.696196 -3.530404 -22.221471 -13.301566 4.541296 38.956933 5.722781 -0.200743 13.269236 -1.067484 -7.240578 -23.382133 0.408926 6.017742 0.000000 0.000000 0.000000 -3.880999 3.477740 -3.097511 6.912682 1.754559 0.509789 -2.577860 -0.675478 1.858111 0.003804 0.636214 -0.492796 0.000000 0.000000 0.000000 -2.617231 -0.159435 1.602348 -2.672478 -2.427151 1.756812 3.412058 1.180839 2.997530 0.000000 0.000000 0.000000 -2.620328 0.112729 1.814890 0.542384 2.645391 -1.201669 1.153523 -2.359477 -0.187629 0.587374 2.183358 -71.282586 24.118964 -16.174233 1.731123 0.000000 0.000000 0.000000 -1.832839 -0.123943 1.718542 0.826350 4.394611 5.188135 -2.810152 0.800149 -2.309016 -7.788537 7.502486 77.973296 12.128383 18.803472 -3.464030 0.000000 0.000000 0.000000 
1.818590 101.643265 2.873962 0.000000 0.000000 0.000000 -0.703417 -2.611574 -3.218435 -35.264953 -3.826041 4.141376 35.167999 -0.351048 -0.703221 23.387918 -1.415526 11.319182 -16.870009 -0.790889 1.394786 0.000000 0.000000 0.000000 0.778266 -1.281685 -3.558139 -20.958992 -12.830681 3.958474 39.307879 6.774349 -0.363178 14.443431 0.394205 -7.745373 -26.292397 0.208331 6.309080 0.000000 0.000000 0.000000 -2.743625 2.488508 -3.646965 6.870740 1.873484 0.982401 -2.638182 -0.576470 1.847348 0.568600 0.317245 -0.141051 0.000000 0.000000 0.000000 -2.549139 -0.116597 1.595031 -2.818604 -1.900878 0.820119 3.679732 1.331393 2.740021 0.000000 0.000000 0.000000 -2.861158 0.218625 1.785597 0.610048 3.904091 -2.041519 -0.112237 -2.970663 -0.889202 1.194266 2.710837 -71.602246 24.561717 -16.492450 2.200163 0.000000 0.000000 0.000000 -1.888787 -0.099852 1.645839 0.897928 4.363164 4.306201 -2.418117 0.892989 -1.963189 -9.234297 8.925066 77.374855 12.074268 18.603272 -3.554928 0.000000 0.000000 0.000000 
2.303951 102.163383 5.639835 0.000000 0.000000 0.000000 -0.544206 -2.787501 -3.127175 -35.428075 -2.234687 3.891803 24.624840 -0.434129 -0.672236 29.623958 -1.178067 8.199337 -20.475715 -0.711879 1.221427 0.000000 0.000000 0.000000 0.939657 -2.105638 -3.525887 -18.603936 -12.724010 3.143932 38.913176 8.067440 -0.559916 14.089363 2.295756 -8.514172 -29.262648 0.434813 6.167068 0.000000 0.000000 0.000000 -1.828097 1.501880 -4.049766 6.792402 1.912329 1.622577 -2.683824 -0.516939 1.889143 1.099574 0.074600 0.232347 0.000000 0.000000 0.000000 -2.534845 -0.117536 1.662910 -3.295060 -1.076751 -0.380907 3.894529 1.585635 2.213858 0.000000 0.000000 0.000000 -3.051827 0.282283 1.817036 0.705519 5.734644 -3.318020 -1.395760 -3.671367 -1.183129 2.171681 3.534560 -72.186473 25.160600 -16.323635 2.754094 0.000000 0.000000 0.000000 -1.935641 -0.143428 1.546177 1.011717 4.238144 3.090965 -2.141407 0.831901 -1.440293 -10.676827 10.817648 76.682868 11.865138 18.820839 -3.513855 0.000000 0.000000 0.000000 
2.846808 102.377167 8.584801 0.000000 0.000000 0.000000 -0.637386 -3.103893 -2.920042 -35.694985 -0.495665 3.794144 16.145348 -1.315412 -0.688141 36.764569 -1.596429 3.811881 -25.293878 -0.547594 1.543020 0.000000 0.000000 0.000000 0.825638 -2.944170 -3.477587 -15.206047 -13.208678 2.223875 37.625624 9.254946 -0.698515 11.644544 4.100409 -9.374491 -31.252275 0.994057 5.563424 0.000000 0.000000 0.000000 -1.089118 0.798479 -4.277036 6.681332 1.874214 2.238189 -2.651577 -0.527793 2.019367 1.113337 0.170194 0.432031 0.000000 0.000000 0.000000 -2.575447 -0.199833 1.865138 -4.066888 -0.124689 -1.524086 4.013761 1.873414 1.564783 0.000000 0.000000 0.000000 -3.176623 0.270519 1.967200 0.864014 7.773764 -4.725076 -2.206674 -4.220757 -1.076185 3.281083 4.265532 -72.834132 25.629211 -15.621710 3.182029 0.000000 0.000000 0.000000 -1.996373 -0.269243 1.511744 1.131642 4.073681 1.723109 -1.836873 0.803603 -0.953513 -11.833456 12.493083 76.350149 11.500100 19.697067 -3.344411 0.000000 0.000000 0.000000 
3.381408 101.896828 12.011318 0.000000 0.000000 0.000000 -1.036796 -3.816188 -2.648297 -36.107508 1.682115 3.649692 11.511643 -2.309802 -1.071627 41.651477 -1.888304 0.564900 -28.466702 -0.164088 1.589517 0.000000 0.000000 0.000000 0.318285 -3.359517 -3.425052 -11.155724 -14.058859 1.258687 35.850543 10.170373 -0.741303 7.253341 5.444958 -9.676011 -31.467033 1.678587 4.583357 0.000000 0.000000 0.000000 -0.910954 0.103830 -4.296439 6.536220 1.756653 2.609962 -2.519603 -0.600846 2.222314 0.851507 0.467660 0.431246 0.000000 0.000000 0.000000 -2.651012 -0.366262 2.164818 -5.028334 0.805641 -2.306541 4.001550 2.153151 0.967898 0.000000 0.000000 0.000000 -3.222392 0.185495 2.231219 1.067848 9.496398 -5.919080 -2.460250 -4.686236 -0.729842 4.304231 4.629515 -73.407069 25.702593 -14.288769 3.326072 0.000000 0.000000 0.000000 -2.069510 -0.451690 1.603995 1.228721 3.955779 0.377638 -1.420915 0.763787 -0.526626 -12.422388 13.348788 76.747147 11.044184 20.999750 -3.088970 0.000000 0.000000 0.000000 
3.769337 100.701866 15.971027 0.000000 0.000000 0.000000 -1.716995 -4.825002 -2.325862 -36.548182 4.687237 3.499551 10.951225 -3.030080 -1.661077 42.037024 -1.277462 -0.171677 -29.105430 0.247775 1.908273 0.000000 0.000000 0.000000 -0.422289 -3.480668 -3.200562 -6.854497 -14.723858 0.328744 34.354308 10.780593 -0.695908 1.607199 6.050726 -9.054496 -30.937205 2.211959 3.384818 0.000000 0.000000 0.000000 -1.425833 -0.330649 -4.127380 6.310155 1.576133 2.573494 -2.306532 -0.714605 2.442779 0.710529 0.993906 0.168997 0.000000 0.000000 0.000000 -2.669137 -0.560602 2.492040 -6.017898 1.638499 -2.540123 3.876184 2.393084 0.562497 0.000000 0.000000 0.000000 -3.186237 0.079337 2.537720 1.280726 10.552558 -6.678660 -2.213607 -5.075166 -0.132008 5.016035 4.490985 -73.861406 25.401211 -12.444214 3.232246 0.000000 0.000000 0.000000 -2.137143 -0.632947 1.774395 1.245970 3.861651 -0.766540 -1.015432 0.653042 -0.216680 -12.395190 13.081280 77.832335 10.585822 22.068877 -2.830465 0.000000 0.000000 0.000000 
3.960132 99.238663 20.096319 0.000000 0.000000 0.000000 -2.564707 -5.670081 -1.962925 -36.863747 8.379757 3.111822 13.946025 -4.107064 -2.274565 38.598133 -0.358222 1.714278 -28.104552 0.505782 2.764007 0.000000 0.000000 0.000000 -1.317448 -3.237039 -2.762155 -2.737798 -14.666827 -0.386168 33.445930 10.952506 -0.763287 -4.585551 5.798588 -7.776950 -30.482926 2.465890 2.147433 0.000000 0.000000 0.000000 -2.256294 -0.273747 -3.726275 5.959447 1.362536 2.110429 -2.034030 -0.789989 2.625332 0.705395 1.568979 -0.142008 0.000000 0.000000 0.000000 -2.566466 -0.684128 2.756428 -6.851421 2.222957 -2.194499 3.661596 2.524353 0.409786 0.000000 0.000000 0.000000 -3.050676 0.026648 2.784470 1.476535 10.747834 -6.910954 -1.696016 -5.129892 0.373477 5.076645 3.881353 -74.326802 24.952423 -10.510908 3.039900 0.000000 0.000000 0.000000 -2.071585 -0.710519 1.955792 1.179939 3.819940 -1.609576 -0.757459 0.491922 0.155011 -11.663339 12.008277 79.347079 10.237735 22.365451 -2.648469 0.000000 0.000000 0.000000 
4.108018 97.914879 24.264418 0.000000 0.000000 0.000000 -3.341742 -6.357773 -1.480901 -37.164712 12.362892 2.558284 19.123462 -6.033611 -2.929172 33.521319 -0.314384 5.509030 -27.797048 0.373900 4.244015 0.000000 0.000000 0.000000 -2.081228 -2.824784 -2.096787 0.816082 -13.363974 -0.685023 33.263090 10.439420 -0.908886 -10.080060 4.747831 -6.801995 -30.189737 2.582467 1.158569 0.000000 0.000000 0.000000 -3.203307 0.266087 -3.050322 5.369413 1.112779 1.245262 -1.735239 -0.778268 2.753683 0.895203 1.679988 -0.378026 0.000000 0.000000 0.000000 -2.336991 -0.686930 2.903376 -7.389824 2.524857 -1.425670 3.413214 2.543203 0.511697 0.000000 0.000000 0.000000 -2.810673 0.063977 2.901336 1.637247 10.212210 -6.706636 -1.127141 -4.869664 0.631894 4.584731 3.238000 -74.938288 24.649738 -9.058546 2.979962 0.000000 0.000000 0.000000 -1.820829 -0.647805 2.103912 1.073989 3.791483 -2.145397 -0.777083 0.274162 0.481702 -10.217428 10.492385 80.900169 10.118545 21.616586 -2.581412 0.000000 0.000000 0.000000 
4.291996 97.034004 28.181503 0.000000 0.000000 0.000000 -3.785688 -6.726666 -0.786394 -37.928751 16.139421 2.087459 25.126000 -8.902551 -3.370744 29.697758 -1.775734 9.643022 -30.345861 -0.391008 6.616784 0.000000 0.000000 0.000000 -2.554949 -2.291362 -1.173569 3.414519 -10.808517 -0.557335 33.576240 9.387728 -1.216086 -13.595052 3.472838 -6.186948 -31.601188 2.762341 0.318011 0.000000 0.000000 0.000000 -3.824191 1.200519 -2.079743 4.454186 0.858247 0.041964 -1.443826 -0.686973 2.849382 0.840200 1.705317 -0.428178 0.000000 0.000000 0.000000 -1.989264 -0.574723 2.972735 -7.569947 2.579942 -0.503813 3.148568 2.510477 0.771460 0.000000 0.000000 0.000000 -2.509242 0.177060 2.935505 1.754633 9.327220 -6.239965 -0.587762 -4.501041 0.765342 3.816229 3.090220 -75.660205 24.615710 -8.477358 3.208650 0.000000 0.000000 0.000000 -1.423862 -0.474511 2.218892 0.965966 3.765006 -2.357475 -1.043070 0.041375 0.591965 -8.209294 8.997290 82.031487 10.267399 20.181344 -2.587280 0.000000 0.000000 0.000000 
4.525290 96.727852 32.053886 0.000000 0.000000 0.000000 -3.776608 -6.644929 0.187431 -38.759152 19.057637 1.329459 30.923057 -12.158326 -3.264617 28.499740 -3.674657 13.175932 -33.907333 -1.370664 8.579286 0.000000 0.000000 0.000000 -2.553702 -1.731881 -0.041219 4.858084 -7.297451 -0.169409 34.705673 8.282403 -1.717872 -13.604829 2.373617 -4.915187 -36.626060 3.345294 -0.705187 0.000000 0.000000 0.000000 -4.142299 2.145743 -0.846270 3.304738 0.581486 -1.365784 -1.163615 -0.547951 2.948329 0.656860 1.722923 -0.374543 0.000000 0.000000 0.000000 -1.560610 -0.426966 3.019330 -7.414737 2.490639 0.299972 2.885174 2.494841 1.060539 0.000000 0.000000 0.000000 -2.172809 0.301181 2.956760 1.827272 8.385450 -5.694617 -0.203824 -3.999250 0.639236 3.117279 3.768208 -76.367703 24.740395 -8.792914 3.716235 0.000000 0.000000 0.000000 -0.952466 -0.286863 2.355198 0.909932 3.793198 -2.259877 -1.436355 -0.223561 0.471934 -5.840212 7.834424 82.542358 10.674688 18.670080 -2.608954 0.000000 0.000000 0.000000 
